<?xml version="1.0" encoding="utf-8"?>
<svg xmlns="http://www.w3.org/2000/svg" viewBox="142.175 0 21.644 21.644" width="21.644px" height="21.644px">
  <defs>
    <linearGradient x1="0" y1="0" x2="1" y2="0" gradientUnits="userSpaceOnUse" gradientTransform="matrix(16.2327,0,0,-16.2327,352.577,395.33652)" spreadMethod="pad" id="linearGradient1702">
      <stop style="stop-opacity:1;stop-color:#f0c918" offset="0" id="stop1698"/>
      <stop style="stop-opacity:1;stop-color:#ef4623" offset="1" id="stop1700"/>
    </linearGradient>
    <clipPath clipPathUnits="userSpaceOnUse" id="clipPath1712">
      <path d="M 0,500 H 500 V 0 H 0 Z" id="path1710"/>
    </clipPath>
    <linearGradient x1="0" y1="0" x2="1" y2="0" gradientUnits="userSpaceOnUse" gradientTransform="matrix(7.5228877,0,0,-7.5228877,357.06113,396.64386)" spreadMethod="pad" id="linearGradient1734">
      <stop style="stop-opacity:1;stop-color:#f0c918" offset="0" id="stop1730"/>
      <stop style="stop-opacity:1;stop-color:#74be44" offset="1" id="stop1732"/>
    </linearGradient>
    <linearGradient x1="0" y1="0" x2="1" y2="0" gradientUnits="userSpaceOnUse" gradientTransform="matrix(5.1581998,0,0,-5.1581998,358.2435,394.83911)" spreadMethod="pad" id="linearGradient1754">
      <stop style="stop-opacity:1;stop-color:#f0c918" offset="0" id="stop1750"/>
      <stop style="stop-opacity:1;stop-color:#ef4623" offset="1" id="stop1752"/>
    </linearGradient>
    <linearGradient x1="0" y1="0" x2="1" y2="0" gradientUnits="userSpaceOnUse" gradientTransform="matrix(3.9422908,-6.1538296,-6.1538296,-3.9422908,358.96982,397.73126)" spreadMethod="pad" id="linearGradient1774">
      <stop style="stop-opacity:1;stop-color:#f0c918" offset="0" id="stop1770"/>
      <stop style="stop-opacity:1;stop-color:#ef4623" offset="1" id="stop1772"/>
    </linearGradient>
  </defs>
  <g id="g1686" transform="matrix(1.3333330154418945, 0, 0, -1.3333330154418945, -327.92755126953125, 537.9371948242188)">
    <g id="g1688">
      <g id="g1694">
        <g id="g1696">
          <path d="m 352.577,395.337 c 0,-4.483 3.634,-8.117 8.116,-8.117 v 0 c 4.483,0 8.117,3.634 8.117,8.117 v 0 c 0,4.482 -3.634,8.116 -8.117,8.116 v 0 c -4.482,0 -8.116,-3.634 -8.116,-8.116" style="fill:url(#linearGradient1702);stroke:none" id="path1704"/>
        </g>
      </g>
    </g>
  </g>
  <g id="g1706" transform="matrix(1.3333330154418945, 0, 0, -1.3333330154418945, -327.92755126953125, 537.9371948242188)">
    <g id="g1708" clip-path="url(#clipPath1712)">
      <g id="g1714" transform="translate(365.9754,395.3365)">
        <path d="m 0,0 c 0,-2.917 -2.365,-5.282 -5.282,-5.282 -2.917,0 -5.282,2.365 -5.282,5.282 0,2.917 2.365,5.282 5.282,5.282 C -2.365,5.282 0,2.917 0,0" style="fill:#ffffff;fill-opacity:1;fill-rule:nonzero;stroke:none" id="path1716"/>
      </g>
    </g>
  </g>
  <g id="g1718" transform="matrix(1.3333330154418945, 0, 0, -1.3333330154418945, -327.92755126953125, 537.9371948242188)">
    <g id="g1720">
      <g id="g1726">
        <g id="g1728">
          <path d="m 359.806,400.251 c -0.69,-1.169 -0.354,-2.352 -0.294,-2.552 v 0 c -0.083,0.007 -0.438,0.048 -0.718,0.352 v 0 c -0.303,0.329 -0.293,0.725 -0.289,0.799 v 0 c -0.302,-0.301 -0.718,-0.792 -1.028,-1.494 v 0 c -0.494,-1.119 -0.437,-2.138 -0.378,-2.621 v 0 c 0.044,-0.341 0.203,-1.199 0.903,-1.952 v 0 c 1.084,-1.164 2.579,-1.122 2.811,-1.111 v 0 c 0.159,-0.012 1.93,-0.106 3.041,1.3 v 0 c 0.813,1.029 0.741,2.191 0.717,2.469 v 0 c -0.078,0.518 -0.271,1.283 -0.822,1.978 v 0 c -0.796,1.005 -1.691,1.045 -2.181,1.951 v 0 c -0.224,0.414 -0.416,1.104 -0.098,2.251 v 0 c -0.256,-0.092 -1.115,-0.439 -1.664,-1.37" style="fill:url(#linearGradient1734);stroke:none" id="path1736"/>
        </g>
      </g>
    </g>
  </g>
  <g id="g1738" transform="matrix(1.3333330154418945, 0, 0, -1.3333330154418945, -327.92755126953125, 537.9371948242188)">
    <g id="g1740">
      <g id="g1746">
        <g id="g1748">
          <path d="m 358.243,394.839 c 0,-1.425 1.155,-2.579 2.58,-2.579 v 0 c 1.424,0 2.579,1.154 2.579,2.579 v 0 c 0,1.425 -1.155,2.579 -2.579,2.579 v 0 c -1.425,0 -2.58,-1.154 -2.58,-2.579" style="fill:url(#linearGradient1754);stroke:none" id="path1756"/>
        </g>
      </g>
    </g>
  </g>
  <g id="g1758" transform="matrix(1.3333330154418945, 0, 0, -1.3333330154418945, -327.92755126953125, 537.9371948242188)">
    <g id="g1760">
      <g id="g1766">
        <g id="g1768">
          <path d="m 359.077,394.839 c 0,-0.964 0.782,-1.745 1.746,-1.745 v 0 c 0.963,0 1.745,0.781 1.745,1.745 v 0 c 0,0.964 -0.782,1.745 -1.745,1.745 v 0 c -0.964,0 -1.746,-0.781 -1.746,-1.745" style="fill:url(#linearGradient1774);stroke:none" id="path1776"/>
        </g>
      </g>
    </g>
  </g>
</svg>