<?xml version="1.0" encoding="utf-8"?>
<svg xmlns="http://www.w3.org/2000/svg" viewBox="248.8822 172.0487 36.8571 48.7741" width="36.8571px" height="48.7741px">
  <defs>
    <linearGradient x1="0" y1="0" x2="1" y2="0" gradientUnits="userSpaceOnUse" gradientTransform="matrix(27.643007,0,0,-27.643007,334.12463,218.75455)" spreadMethod="pad" id="linearGradient884">
      <stop style="stop-opacity:1;stop-color:#f0c918" offset="0" id="stop880"/>
      <stop style="stop-opacity:1;stop-color:#ef4623" offset="1" id="stop882"/>
    </linearGradient>
    <linearGradient x1="0" y1="0" x2="1" y2="0" gradientUnits="userSpaceOnUse" gradientTransform="matrix(18.953899,0,0,-18.953899,338.46921,212.12296)" spreadMethod="pad" id="linearGradient904">
      <stop style="stop-opacity:1;stop-color:#f0c918" offset="0" id="stop900"/>
      <stop style="stop-opacity:1;stop-color:#ef4623" offset="1" id="stop902"/>
    </linearGradient>
    <linearGradient x1="0" y1="0" x2="1" y2="0" gradientUnits="userSpaceOnUse" gradientTransform="matrix(14.486053,-22.61241,-22.61241,-14.486053,341.13809,222.75021)" spreadMethod="pad" id="linearGradient924">
      <stop style="stop-opacity:1;stop-color:#f0c918" offset="0" id="stop920"/>
      <stop style="stop-opacity:1;stop-color:#ef4623" offset="1" id="stop922"/>
    </linearGradient>
  </defs>
  <g id="g868" transform="matrix(1.3333330154418945, 0, 0, -1.3333330154418945, -196.61744689941406, 488.10864257812494)">
    <g id="g870">
      <g id="g876">
        <g id="g878">
          <path d="m 344.209,232.008 c -2.532,-4.295 -1.299,-8.643 -1.079,-9.374 v 0 c -0.305,0.026 -1.61,0.173 -2.638,1.29 v 0 c -1.116,1.213 -1.074,2.666 -1.062,2.939 v 0 c -1.11,-1.108 -2.638,-2.912 -3.777,-5.491 v 0 c -1.815,-4.114 -1.606,-7.858 -1.387,-9.634 v 0 c 0.161,-1.25 0.744,-4.405 3.314,-7.169 v 0 c 3.982,-4.279 9.48,-4.123 10.329,-4.085 v 0 c 0.585,-0.041 7.096,-0.39 11.176,4.779 v 0 c 2.984,3.781 2.725,8.051 2.635,9.072 v 0 c -0.286,1.901 -0.994,4.712 -3.021,7.268 v 0 c -2.924,3.69 -6.213,3.839 -8.016,7.169 v 0 c -0.822,1.521 -1.526,4.057 -0.359,8.273 v 0 c -0.94,-0.341 -4.098,-1.614 -6.115,-5.037" style="fill:url(#linearGradient884);stroke:none" id="path886"/>
        </g>
      </g>
    </g>
  </g>
  <g id="g888" transform="matrix(1.3333330154418945, 0, 0, -1.3333330154418945, -196.61744689941406, 488.10864257812494)">
    <g id="g890">
      <g id="g896">
        <g id="g898">
          <path d="m 338.469,212.123 c 0,-5.234 4.243,-9.477 9.477,-9.477 v 0 c 5.234,0 9.477,4.243 9.477,9.477 v 0 c 0,5.234 -4.243,9.477 -9.477,9.477 v 0 c -5.234,0 -9.477,-4.243 -9.477,-9.477" style="fill:url(#linearGradient904);stroke:none" id="path906"/>
        </g>
      </g>
    </g>
  </g>
  <g id="g908" transform="matrix(1.3333330154418945, 0, 0, -1.3333330154418945, -196.61744689941406, 488.10864257812494)">
    <g id="g910">
      <g id="g916">
        <g id="g918">
          <path d="m 341.534,212.123 c 0,-3.542 2.871,-6.413 6.412,-6.413 v 0 c 3.542,0 6.413,2.871 6.413,6.413 v 0 c 0,3.541 -2.871,6.412 -6.413,6.412 v 0 c -3.541,0 -6.412,-2.871 -6.412,-6.412" style="fill:url(#linearGradient924);stroke:none" id="path926"/>
        </g>
      </g>
    </g>
  </g>
</svg>