<?xml version="1.0" encoding="utf-8"?>
<svg xmlns="http://www.w3.org/2000/svg" viewBox="123.6122 172.3421 36.8578 48.7727" width="36.8578px" height="48.7727px">
  <defs>
    <linearGradient x1="0" y1="0" x2="1" y2="0" gradientUnits="userSpaceOnUse" gradientTransform="matrix(27.643011,0,0,-27.643011,240.17229,218.53545)" spreadMethod="pad" id="linearGradient1004">
      <stop style="stop-opacity:1;stop-color:#f0c918" offset="0" id="stop1000"/>
      <stop style="stop-opacity:1;stop-color:#74be44" offset="1" id="stop1002"/>
    </linearGradient>
    <linearGradient x1="0" y1="0" x2="1" y2="0" gradientUnits="userSpaceOnUse" gradientTransform="matrix(18.954,0,0,-18.954,244.5168,211.90385)" spreadMethod="pad" id="linearGradient1024">
      <stop style="stop-opacity:1;stop-color:#f0c918" offset="0" id="stop1020"/>
      <stop style="stop-opacity:1;stop-color:#ef4623" offset="1" id="stop1022"/>
    </linearGradient>
    <linearGradient x1="0" y1="0" x2="1" y2="0" gradientUnits="userSpaceOnUse" gradientTransform="matrix(14.486035,-22.612383,-22.612383,-14.486035,247.18573,222.53107)" spreadMethod="pad" id="linearGradient1044">
      <stop style="stop-opacity:1;stop-color:#f0c918" offset="0" id="stop1040"/>
      <stop style="stop-opacity:1;stop-color:#ef4623" offset="1" id="stop1042"/>
    </linearGradient>
  </defs>
  <g id="g988" transform="matrix(1.3333330154418945, 0, 0, -1.3333330154418945, -196.61744689941406, 488.10864257812494)">
    <g id="g990">
      <g id="g996">
        <g id="g998">
          <path d="m 250.257,231.79 c -2.532,-4.296 -1.3,-8.644 -1.079,-9.375 v 0 c -0.305,0.026 -1.61,0.173 -2.638,1.29 v 0 c -1.115,1.213 -1.075,2.667 -1.062,2.939 v 0 c -1.111,-1.108 -2.639,-2.913 -3.777,-5.491 v 0 c -1.816,-4.114 -1.606,-7.858 -1.388,-9.635 v 0 c 0.162,-1.25 0.745,-4.405 3.315,-7.168 v 0 c 3.982,-4.28 9.48,-4.123 10.329,-4.085 v 0 c 0.585,-0.041 7.095,-0.389 11.176,4.779 v 0 c 2.984,3.78 2.725,8.051 2.635,9.072 v 0 c -0.287,1.901 -0.995,4.712 -3.021,7.269 v 0 c -2.925,3.689 -6.214,3.838 -8.016,7.167 v 0 c -0.823,1.521 -1.527,4.058 -0.36,8.273 v 0 c -0.938,-0.339 -4.097,-1.614 -6.114,-5.035" style="fill:url(#linearGradient1004);stroke:none" id="path1006"/>
        </g>
      </g>
    </g>
  </g>
  <g id="g1008" transform="matrix(1.3333330154418945, 0, 0, -1.3333330154418945, -196.61744689941406, 488.10864257812494)">
    <g id="g1010">
      <g id="g1016">
        <g id="g1018">
          <path d="m 244.516,211.904 c 0,-5.234 4.244,-9.477 9.477,-9.477 v 0 c 5.235,0 9.477,4.243 9.477,9.477 v 0 c 0,5.234 -4.242,9.477 -9.477,9.477 v 0 c -5.233,0 -9.477,-4.243 -9.477,-9.477" style="fill:url(#linearGradient1024);stroke:none" id="path1026"/>
        </g>
      </g>
    </g>
  </g>
  <g id="g1028" transform="matrix(1.3333330154418945, 0, 0, -1.3333330154418945, -196.61744689941406, 488.10864257812494)">
    <g id="g1030">
      <g id="g1036">
        <g id="g1038">
          <path d="m 247.581,211.904 c 0,-3.541 2.871,-6.412 6.412,-6.412 v 0 c 3.542,0 6.413,2.871 6.413,6.412 v 0 c 0,3.542 -2.871,6.413 -6.413,6.413 v 0 c -3.541,0 -6.412,-2.871 -6.412,-6.413" style="fill:url(#linearGradient1044);stroke:none" id="path1046"/>
        </g>
      </g>
    </g>
  </g>
</svg>