<?xml version="1.0" encoding="utf-8"?>
<svg xmlns="http://www.w3.org/2000/svg" viewBox="316.9406 185.9249 47.6354 30.7084" width="260px" height="168px">
  <defs>
    <clipPath clipPathUnits="userSpaceOnUse" id="clipPath576">
      <path d="M -179.86 454.466 L 486.787 454.466 L 486.787 -212.2 L -179.86 -212.2 L -179.86 454.466 Z" id="path576"/>
    </clipPath>
  </defs>
  <g style="transform-origin: 347.057px 149.95px;" transform="matrix(0.955408096313, 0.2952940166, -0.2952940166, 0.955408096313, -6.299148612325, 51.329339975996)">
    <path id="path575" d="M 351.669 169.359 C 350.088 169.848 348.405 168.962 347.916 167.382 C 347.424 165.802 348.31 164.118 349.892 163.628 C 351.472 163.138 353.156 164.026 353.645 165.606 C 354.136 167.184 353.249 168.868 351.669 169.359 M 350.286 160.994 L 340.018 127.879 L 337.808 128.566 L 348.076 161.679 C 345.853 162.927 344.717 165.599 345.501 168.13 C 346.405 171.04 349.506 172.674 352.417 171.772 C 355.326 170.87 356.961 167.767 356.058 164.856 C 355.273 162.326 352.825 160.766 350.286 160.994" style="fill: rgb(104, 112, 255); fill-opacity: 1; fill-rule: nonzero; stroke: none; transform-box: fill-box; transform-origin: 50% 50%;" clip-path="url(#clipPath576)" transform="matrix(0, 1, -1, 0, -0.000012, -0.000002)"/>
  </g>
</svg>